<svg width="48" height="48" viewBox="0 0 48 48" fill="none" xmlns="http://www.w3.org/2000/svg">
<g clip-path="url(#clip0_3801_17376)">
<path d="M38.4 0H9.6C4.29807 0 0 4.29807 0 9.6V38.4C0 43.7019 4.29807 48 9.6 48H38.4C43.7019 48 48 43.7019 48 38.4V9.6C48 4.29807 43.7019 0 38.4 0Z" fill="#28ACE4"/>
<path d="M9.62593 27.1949H8.14657L8.01601 26.0352H5.93377L5.27233 27.1949H3.73633L7.14145 21.5117H8.83585L9.62593 27.1949ZM7.90849 25.0186L7.67233 22.9901L6.51361 25.0186H7.90849Z" fill="white"/>
<path d="M13.0127 27.3075C12.3696 27.3493 11.7343 27.147 11.2338 26.7411C11.0181 26.5317 10.8505 26.2781 10.7424 25.9977C10.6343 25.7172 10.5884 25.4167 10.6079 25.1167C10.6007 24.5986 10.6946 24.084 10.8844 23.6019C11.0592 23.1644 11.3178 22.7652 11.6456 22.4268C11.9695 22.1011 12.3566 21.8453 12.7832 21.6751C13.2247 21.4946 13.6973 21.4026 14.1743 21.4044C14.5409 21.4018 14.9066 21.442 15.2639 21.5244C15.5819 21.5976 15.8878 21.7163 16.172 21.8767L15.836 23.2543H15.668C15.4627 23.0222 15.2188 22.8273 14.9471 22.6783C14.6853 22.5513 14.397 22.4884 14.1061 22.495C13.8351 22.4909 13.5669 22.5507 13.3233 22.6694C13.0796 22.7882 12.8673 22.9626 12.7035 23.1785C12.3214 23.6762 12.1255 24.292 12.1496 24.919C12.1171 25.2748 12.2269 25.6289 12.4549 25.9039C12.5757 26.012 12.717 26.0947 12.8703 26.1471C13.0237 26.1996 13.186 26.2207 13.3477 26.2092C13.6891 26.2114 14.0269 26.139 14.3375 25.9971C14.65 25.8534 14.9438 25.6719 15.212 25.4566H15.3637L15.0315 26.8159C14.9173 26.862 14.7839 26.9119 14.6312 26.982C14.4882 27.0433 14.3417 27.0962 14.1925 27.1404C14.0249 27.1901 13.8547 27.2308 13.6827 27.2623C13.461 27.2956 13.2369 27.3107 13.0127 27.3075Z" fill="white"/>
<path d="M21.7491 22.9441C21.7621 23.3672 21.6131 23.7792 21.3325 24.0961C21.0243 24.4256 20.6345 24.6677 20.2026 24.7979L21.5159 27.1979H19.8839L18.8135 25.1137H17.9888L17.5088 27.1979H16.0391L17.3504 21.5147H19.568C20.1272 21.483 20.6843 21.6052 21.1789 21.8679C21.3627 21.9787 21.5129 22.1373 21.6133 22.3269C21.7138 22.5165 21.7607 22.7299 21.7491 22.9441ZM20.169 23.1918C20.1779 23.0987 20.1624 23.0048 20.1238 22.9196C20.0852 22.8344 20.025 22.7607 19.9491 22.706C19.7512 22.5984 19.5269 22.5492 19.3021 22.5639H18.5792L18.2259 24.0903H18.9469C19.2654 24.1105 19.582 24.0281 19.8503 23.8551C19.9537 23.7798 20.0369 23.6801 20.0925 23.5649C20.1481 23.4497 20.1744 23.3225 20.169 23.1947V23.1918Z" fill="white"/>
<path d="M24.7434 27.2984C24.1287 27.3341 23.5235 27.1343 23.0509 26.7397C22.841 26.5347 22.6778 26.287 22.5723 26.0134C22.4667 25.7397 22.4214 25.4465 22.4394 25.1537C22.435 24.6556 22.5149 24.1603 22.6755 23.6888C22.8238 23.2523 23.0542 22.8483 23.3543 22.4984C23.6523 22.1583 24.0204 21.8868 24.4333 21.7025C24.8838 21.5046 25.3717 21.4063 25.8637 21.4145C26.1777 21.4127 26.4906 21.4531 26.7939 21.5345C27.1084 21.6252 27.4105 21.7542 27.6934 21.9185L27.5235 22.7739H27.4669C27.3831 22.6901 27.2986 22.6117 27.2134 22.5387C27.0947 22.4453 26.9659 22.3655 26.8295 22.3006C26.6708 22.2197 26.5033 22.1575 26.3303 22.1153C26.1207 22.0641 25.9056 22.0392 25.6899 22.0414C25.3502 22.0374 25.0144 22.1138 24.7098 22.2641C24.4099 22.4149 24.1458 22.628 23.9351 22.8891C23.7095 23.1708 23.5386 23.4921 23.431 23.8366C23.3075 24.2203 23.246 24.6211 23.2486 25.0241C23.2215 25.4695 23.3677 25.9081 23.6567 26.2481C23.8112 26.4001 23.9961 26.5177 24.1992 26.5932C24.4024 26.6686 24.6193 26.7002 24.8355 26.6859C25.0675 26.6869 25.2987 26.6592 25.5239 26.6033C25.728 26.5531 25.9267 26.483 26.1171 26.3941C26.271 26.3216 26.4199 26.2389 26.5626 26.1464C26.6944 26.06 26.8077 25.9797 26.9024 25.9054H26.9562L26.7767 26.7829C26.4804 26.9298 26.1725 27.0518 25.856 27.1477C25.495 27.2542 25.1198 27.305 24.7434 27.2984Z" fill="white"/>
<path d="M29.6973 21.2578L28.3246 27.1973H27.6074L28.9802 21.2607L29.6973 21.2578Z" fill="white"/>
<path d="M33.9356 24.4409C33.9372 24.815 33.8778 25.1869 33.7599 25.542C33.653 25.8752 33.4854 26.1857 33.2655 26.4578C33.0551 26.7184 32.7938 26.9334 32.4975 27.0895C32.1824 27.2467 31.8338 27.3248 31.4818 27.317C31.2652 27.3297 31.0484 27.2978 30.8446 27.2234C30.6408 27.1489 30.4545 27.0334 30.2971 26.8841C30.1499 26.7232 30.0365 26.5345 29.9635 26.329C29.8904 26.1236 29.8593 25.9056 29.8719 25.6879C29.8702 25.317 29.9289 24.9484 30.0457 24.5964C30.155 24.2599 30.3245 23.946 30.5458 23.67C30.7576 23.4098 31.0223 23.1977 31.3224 23.0479C31.6344 22.8912 31.9794 22.8112 32.3285 22.8146C32.542 22.8037 32.7555 22.8352 32.9567 22.9074C33.1579 22.9796 33.3429 23.091 33.5007 23.2351C33.6524 23.3953 33.7693 23.585 33.8441 23.7925C33.919 24 33.9501 24.2208 33.9356 24.4409ZM32.7672 26.0508C32.9104 25.8342 33.0168 25.5955 33.0821 25.3442C33.1556 25.0677 33.1921 24.7826 33.1906 24.4965C33.2122 24.204 33.1207 23.9144 32.9352 23.6873C32.8414 23.593 32.7286 23.52 32.6043 23.4729C32.4799 23.4259 32.3469 23.406 32.2143 23.4146C31.9807 23.4111 31.7506 23.4726 31.5499 23.5922C31.3478 23.7163 31.1746 23.8823 31.0421 24.0789C30.8981 24.2949 30.791 24.5334 30.7253 24.7845C30.6511 25.0587 30.6139 25.3415 30.6149 25.6255C30.5953 25.9178 30.6865 26.2067 30.8703 26.4348C30.9635 26.5314 31.0766 26.6067 31.2017 26.6555C31.3269 26.7042 31.461 26.7252 31.5951 26.717C31.8283 26.7198 32.058 26.6591 32.2594 26.5413C32.4637 26.4184 32.6373 26.2507 32.7672 26.0508Z" fill="white"/>
<path d="M39.0002 22.9326L38.0201 27.195H37.3039L37.4124 26.7227C37.1722 26.8895 36.9178 27.0347 36.6521 27.1566C36.4172 27.2607 36.1631 27.314 35.9062 27.3131C35.5956 27.3317 35.2892 27.233 35.0479 27.0366C34.9407 26.9327 34.8575 26.8065 34.8041 26.6671C34.7507 26.5276 34.7284 26.3782 34.7388 26.2292C34.7385 26.1451 34.7443 26.061 34.756 25.9777C34.7676 25.8964 34.7842 25.8033 34.806 25.6984L35.4415 22.9316H36.1577L35.598 25.3595C35.5749 25.4587 35.5532 25.572 35.5327 25.6993C35.515 25.7989 35.5048 25.8997 35.502 26.0008C35.4952 26.0898 35.5064 26.1793 35.5349 26.2639C35.5635 26.3485 35.6087 26.4265 35.668 26.4932C35.8282 26.619 36.0309 26.6778 36.2335 26.6574C36.4576 26.6485 36.6775 26.5926 36.8787 26.4932C37.1133 26.3881 37.3381 26.2625 37.5506 26.1179L38.2821 22.9326H39.0002Z" fill="white"/>
<path d="M44.2662 21.2568L42.8934 27.1963H42.1782L42.2819 26.7509C42.0384 26.9277 41.7767 27.0779 41.5014 27.1992C41.2962 27.278 41.078 27.3174 40.8582 27.3154C40.68 27.3243 40.5019 27.2945 40.3363 27.2283C40.1706 27.162 40.0211 27.0607 39.8982 26.9314C39.6431 26.6197 39.5167 26.2224 39.5449 25.8207C39.543 25.4251 39.6079 25.032 39.7369 24.6581C39.8544 24.311 40.03 23.9864 40.2563 23.6981C40.4653 23.4321 40.7267 23.2119 41.0243 23.0511C41.3125 22.894 41.6358 22.8121 41.9641 22.813C42.175 22.8112 42.3853 22.8357 42.5901 22.8859C42.7777 22.9325 42.9577 23.0056 43.1247 23.1029L43.5519 21.2559L44.2662 21.2568ZM42.9846 23.6991C42.8254 23.614 42.657 23.5477 42.4825 23.5013C42.3108 23.4583 42.1344 23.437 41.9574 23.4379C41.7082 23.4342 41.463 23.5008 41.2498 23.6299C41.0358 23.7645 40.854 23.9444 40.7171 24.157C40.5733 24.3793 40.4681 24.6244 40.406 24.8818C40.3356 25.1488 40.2988 25.4236 40.2966 25.6997C40.2794 25.9527 40.3492 26.2041 40.4943 26.412C40.5767 26.5002 40.6782 26.5684 40.7911 26.6113C40.9039 26.6543 41.0251 26.6708 41.1453 26.6597C41.3725 26.6564 41.596 26.6016 41.799 26.4994C42.0126 26.3976 42.2186 26.2805 42.4153 26.149L42.9846 23.6991Z" fill="white"/>
</g>
<defs>
<clipPath id="clip0_3801_17376">
<rect width="48" height="48" fill="white"/>
</clipPath>
</defs>
</svg>
