<svg width="48" height="48" viewBox="0 0 48 48" fill="none" xmlns="http://www.w3.org/2000/svg">
<path d="M10 0.349609H38C43.3296 0.349609 47.6504 4.67045 47.6504 10V38C47.6504 43.3296 43.3295 47.6504 38 47.6504H10C4.67045 47.6504 0.349609 43.3295 0.349609 38V10C0.349609 4.67045 4.67045 0.349609 10 0.349609Z" fill="#101F3C" stroke="#E6E6E6" stroke-width="0.7"/>
<path d="M31.0007 25C27.6867 25 25.0007 27.686 25.0007 31C25.0007 34.314 27.6867 37 31.0007 37C34.3147 37 37.0007 34.314 37.0007 31C37.0007 27.686 34.3147 25 31.0007 25ZM34.6837 30.712L31.9807 33.326C31.5287 33.772 30.9287 33.997 30.3277 33.997C29.7267 33.997 29.1247 33.772 28.6647 33.323L27.3107 31.991C26.9157 31.604 26.9107 30.971 27.2967 30.577C27.6827 30.182 28.3157 30.176 28.7107 30.563L30.0647 31.894C30.2087 32.036 30.4447 32.033 30.5867 31.892L33.2997 29.268C33.6967 28.887 34.3307 28.898 34.7137 29.297C35.0957 29.695 35.0827 30.328 34.6847 30.711L34.6837 30.712ZM13.0007 27V24C13.0007 17.935 17.9357 13 24.0007 13C26.4017 13 28.6837 13.763 30.6017 15.206C31.0427 15.539 31.1317 16.165 30.7997 16.606C30.4677 17.047 29.8407 17.136 29.3997 16.804C27.8307 15.624 25.9637 15 24.0007 15C19.0387 15 15.0007 19.038 15.0007 24V27C15.0007 27.553 14.5527 28 14.0007 28C13.4487 28 13.0007 27.553 13.0007 27ZM19.0007 24C19.0007 23.72 19.0237 23.438 19.0697 23.166C19.1617 22.621 18.7947 22.105 18.2497 22.014C17.6937 21.929 17.1877 22.29 17.0977 22.834C17.0337 23.217 17.0007 23.608 17.0007 24C17.0007 26.888 16.4477 30.436 13.8127 30.937C13.2707 31.041 12.9147 31.564 13.0177 32.107C13.1097 32.586 13.5287 32.919 13.9987 32.919C16.6917 32.385 19.0007 30.6 19.0007 24ZM13.9987 32.919C13.9357 32.932 14.0607 32.919 13.9987 32.919V32.919ZM25.0067 24.028C25.0217 24.567 25.4587 25 26.0007 25C26.5527 25 27.0007 24.552 27.0007 24C27.0007 22.346 25.6547 21 24.0007 21C22.3467 21 21.0027 22.344 21.0007 23.997C21.0007 23.998 21.0007 23.999 21.0007 24L21.0067 25C21.0067 28.874 19.6827 30.923 19.6677 30.945C18.5897 32.442 17.3697 34.14 14.2257 35.038C13.6947 35.19 13.3877 35.744 13.5387 36.274C13.6637 36.713 14.0647 37 14.4997 37C14.5907 37 14.6837 36.987 14.7747 36.962C18.5867 35.872 20.1497 33.699 21.3267 32.062C21.3957 31.961 23.0057 29.538 23.0057 24.992L22.9997 24.001C22.9997 23.449 23.4477 23.001 23.9997 23.001C24.5517 23.001 24.9997 23.449 24.9997 24.025L25.0047 24.028H25.0067ZM24.0017 17C22.0177 17 20.1167 17.851 18.7887 19.332C18.4197 19.744 18.4537 20.376 18.8647 20.744C19.2777 21.114 19.9087 21.079 20.2767 20.668C21.2267 19.607 22.5847 19 24.0017 19C26.1627 19 28.0307 20.362 28.7207 22.339C28.8837 22.805 29.3447 23.096 29.8317 23.014C30.4297 22.913 30.8207 22.302 30.6257 21.728C29.6737 18.931 27.0457 17 24.0017 17ZM32.9597 23.132C33.0077 23.63 33.4457 24 33.9467 24C34.5427 24 35.0057 23.481 34.9457 22.888C34.7887 21.344 34.3057 19.845 33.5257 18.499C33.2497 18.02 32.6357 17.857 32.1597 18.135C31.6807 18.411 31.5177 19.024 31.7957 19.501C32.4407 20.614 32.8357 21.854 32.9597 23.132ZM22.3187 34.332C22.0307 34.652 21.7147 34.95 21.3797 35.217C20.9467 35.561 20.8757 36.191 21.2187 36.622C21.4157 36.871 21.7077 37 22.0017 37C22.2197 37 22.4397 36.929 22.6237 36.783C23.0467 36.446 23.4447 36.071 23.8077 35.668C24.1767 35.257 24.1427 34.625 23.7317 34.256C23.3217 33.887 22.6897 33.922 22.3197 34.332H22.3187Z" fill="url(#paint0_linear_3801_17339)"/>
<defs>
<linearGradient id="paint0_linear_3801_17339" x1="30.1339" y1="13.7806" x2="27.5153" y2="32.6591" gradientUnits="userSpaceOnUse">
<stop stop-color="#28FF97"/>
<stop offset="0.925" stop-color="#D45BFF"/>
</linearGradient>
</defs>
</svg>
