<svg width="13" height="16" viewBox="0 0 13 16" fill="none" xmlns="http://www.w3.org/2000/svg">
<path d="M8.29837 16C5.69852 16 3.62375 13.974 3.62375 11.3506C3.62001 10.189 4.05569 9.06803 4.84515 8.20797L1.66763 11.3506L0 9.7013L3.58533 6.19465C4.07066 5.71465 4.32006 5.09065 4.32006 4.40265V0H6.67051V4.40265C6.67051 5.75332 6.18519 6.89598 5.23948 7.83131L5.13433 7.93531C5.99927 7.15565 7.1281 6.72468 8.29837 6.72731C10.9643 6.72731 13 8.81797 13 11.3506C13.0027 11.962 12.883 12.5679 12.6477 13.1332C12.4124 13.6986 12.0662 14.2122 11.629 14.6445C11.1919 15.0768 10.6725 15.4192 10.1008 15.6518C9.52914 15.8844 8.91654 16.0028 8.29837 16ZM8.29837 8.85731C6.86734 8.85731 5.75109 10.026 5.75109 11.3506C5.75109 12.714 6.88015 13.8706 8.29905 13.8706C8.97794 13.8731 9.63011 13.6092 10.1126 13.1368C10.595 12.6644 10.8683 12.0221 10.8726 11.3506C10.8726 9.97397 9.7166 8.85731 8.29837 8.85731Z" fill="black"/>
</svg>
