<svg width="48" height="48" viewBox="0 0 48 48" fill="none" xmlns="http://www.w3.org/2000/svg">
<path d="M10 0.349609H38C43.3296 0.349609 47.6504 4.67045 47.6504 10V38C47.6504 43.3296 43.3295 47.6504 38 47.6504H10C4.67045 47.6504 0.349609 43.3295 0.349609 38V10C0.349609 4.67045 4.67045 0.349609 10 0.349609Z" fill="#16171A" stroke="#D2D2E3" stroke-width="0.7"/>
<path d="M27.8101 41.1382C22.3019 41.1382 17.9061 36.7982 17.9061 31.1785C17.8982 28.6901 18.8212 26.2887 20.4939 24.4463L13.7617 31.1785L10.2285 27.6453L17.8247 20.1334C18.853 19.1052 19.3814 17.7684 19.3814 16.2946V6.86328H24.3612V16.2946C24.3612 19.188 23.333 21.6358 21.3293 23.6395L21.1065 23.8622C22.9391 22.1921 25.3307 21.2688 27.8101 21.2745C33.4584 21.2745 37.7713 25.7531 37.7713 31.1785C37.7831 33.8239 36.7374 36.3643 34.8667 38.2347C32.996 40.1051 30.4555 41.1505 27.8101 41.1382ZM27.8101 25.8373C24.7782 25.8373 22.4133 28.3408 22.4133 31.1785C22.4133 34.099 24.8054 36.5768 27.8116 36.5768C30.8064 36.5879 33.2453 34.1733 33.2641 31.1785C33.2641 28.2294 30.8149 25.8373 27.8101 25.8373Z" fill="#00FE99"/>
</svg>
