<svg width="48" height="48" viewBox="0 0 48 48" fill="none" xmlns="http://www.w3.org/2000/svg">
<g clip-path="url(#clip0_3801_17363)">
<path d="M38.4 0H9.6C4.29807 0 0 4.29807 0 9.6V38.4C0 43.7019 4.29807 48 9.6 48H38.4C43.7019 48 48 43.7019 48 38.4V9.6C48 4.29807 43.7019 0 38.4 0Z" fill="#06112F"/>
<path d="M24.3268 39.3626H23.6548C23.6394 39.3559 23.6233 39.3511 23.6068 39.3482C23.2535 39.3271 22.8993 39.3156 22.5508 39.2839C22.2253 39.2551 21.8989 39.2167 21.5764 39.162C21.1684 39.0929 20.7633 39.0103 20.3601 38.9201C19.6219 38.7492 18.8991 38.5177 18.1991 38.2279C17.6627 38.0102 17.1396 37.7611 16.6324 37.482C16.0275 37.155 15.4477 36.7838 14.8977 36.3713C14.5521 36.1092 14.2161 35.8346 13.8849 35.5553C13.6391 35.3479 13.4049 35.128 13.1735 34.9044C13.0045 34.7412 12.8452 34.5674 12.6887 34.3917C12.4516 34.1258 12.2087 33.8647 11.9908 33.5815C11.665 33.1527 11.3517 32.7146 11.0509 32.2673C10.7161 31.7588 10.4178 31.2272 10.1581 30.6765C9.48045 29.2769 9.02074 27.7819 8.79494 26.2433C8.7527 25.962 8.72678 25.6788 8.69894 25.3956C8.67206 25.0903 8.64326 24.7879 8.64326 24.4826C8.63654 24.0516 8.64326 23.6186 8.6567 23.1885C8.66246 22.9533 8.6807 22.7191 8.7047 22.4858C8.73254 22.2209 8.76614 21.9559 8.80934 21.6938C8.86502 21.3472 8.92166 21.0007 9.00134 20.658C9.15182 19.9676 9.35103 19.2888 9.5975 18.6266C9.8326 17.9848 10.1156 17.3616 10.4442 16.7623C10.6855 16.3297 10.9415 15.906 11.2122 15.4913C11.4436 15.138 11.6989 14.8001 11.9543 14.4631C12.1079 14.2596 12.2759 14.0666 12.4458 13.8765C12.6839 13.6106 12.9258 13.3466 13.1745 13.0922C13.3665 12.9002 13.5681 12.7197 13.7697 12.5402C13.9713 12.3607 14.1873 12.1649 14.41 11.9949C14.7767 11.7156 15.1482 11.441 15.5303 11.1837C16.3905 10.6082 17.3092 10.1255 18.2711 9.74373C19.3036 9.32376 20.3811 9.02449 21.4823 8.85189C21.9201 8.78789 22.3594 8.73285 22.8004 8.68677C23.1076 8.65605 23.4177 8.64549 23.7258 8.64453C24.0804 8.64453 24.4353 8.65317 24.7905 8.67045C25.1505 8.69061 25.5105 8.72325 25.8695 8.76645C26.1441 8.79621 26.4167 8.84229 26.6893 8.88645C27.1983 8.97309 27.702 9.0875 28.1985 9.22917C28.2676 9.24837 28.2762 9.27813 28.2762 9.33765C28.2762 13.9706 28.2762 18.6036 28.2762 23.2365C28.2791 23.3833 28.2733 23.5301 28.2589 23.6762C28.2253 23.9575 28.1946 24.2417 28.137 24.5181C27.9768 25.3599 27.5508 26.1281 26.9217 26.7098C26.6728 26.9381 26.3964 27.1345 26.0989 27.2945C25.4481 27.6376 24.7326 27.8407 23.9985 27.8906C23.9025 27.8993 23.9025 27.8973 23.9025 28.001V32.8346C23.903 32.8448 23.903 32.8551 23.9025 32.8653C23.8967 32.9162 23.9111 32.9393 23.9697 32.9335C24.0532 32.9258 24.1367 32.9277 24.2202 32.9249C24.4679 32.9143 24.7165 32.9133 24.9633 32.8893C25.2839 32.8586 25.6055 32.8241 25.9233 32.7674C26.2929 32.7012 26.6615 32.6205 27.0244 32.5245C27.7128 32.342 28.3762 32.0761 29.0001 31.7325C29.76 31.3199 30.4511 30.7917 31.0487 30.1668C31.3156 29.8863 31.5635 29.5884 31.7908 29.2749C32.1852 28.7271 32.516 28.1361 32.7767 27.5133C33.0214 26.931 33.2101 26.3267 33.3402 25.7085C33.4376 25.2692 33.5046 24.8236 33.5409 24.3751C33.5629 24.0804 33.5985 23.7857 33.5985 23.4909C33.6023 19.6938 33.6023 15.8967 33.5985 12.0996V12.0113C33.6135 12.0181 33.6279 12.0261 33.6417 12.0353C33.9873 12.3396 34.3425 12.6343 34.6756 12.9511C34.9636 13.2237 35.2276 13.5175 35.4945 13.8093C35.8852 14.2431 36.2476 14.7017 36.5793 15.1821C37.355 16.2883 37.9821 17.4915 38.4445 18.761C38.6544 19.3323 38.8273 19.9166 38.962 20.5101C39.0321 20.8231 39.0906 21.138 39.1463 21.4538C39.1847 21.6689 39.2116 21.8858 39.2423 22.1028C39.273 22.3197 39.2989 22.5425 39.3162 22.7633C39.3335 22.9841 39.3383 23.2289 39.3498 23.4612C39.3528 23.4771 39.3576 23.4925 39.3642 23.5073V24.4826C39.3576 24.495 39.3527 24.5082 39.3498 24.522C39.3335 24.7869 39.3249 25.0529 39.3018 25.3169C39.273 25.6452 39.2433 25.9744 39.1924 26.2999C39.13 26.6935 39.0513 27.0842 38.9658 27.473C38.8068 28.1823 38.5931 28.8781 38.3265 29.5543C38.0926 30.1556 37.8207 30.7414 37.5124 31.3082C37.2078 31.8786 36.8629 32.4266 36.4804 32.9479C36.2241 33.2916 35.9562 33.6266 35.6845 33.9588C35.5117 34.1709 35.3303 34.3754 35.1412 34.5732C34.9367 34.7873 34.7236 34.9946 34.5057 35.1953C34.2445 35.4353 33.9844 35.6753 33.7079 35.897C33.3508 36.185 32.985 36.4548 32.6097 36.714C31.9286 37.1805 31.2093 37.5883 30.4593 37.9332C29.7594 38.2616 29.0342 38.5329 28.2906 38.7444C27.8337 38.873 27.369 38.9777 26.9044 39.0794C26.6452 39.1361 26.3793 39.1668 26.1162 39.2052C25.9444 39.2301 25.7716 39.2503 25.5988 39.2676C25.3703 39.2906 25.1409 39.3117 24.9114 39.3271C24.7338 39.3386 24.5562 39.3386 24.3796 39.3444C24.3614 39.3485 24.3437 39.3546 24.3268 39.3626Z" fill="white"/>
</g>
<defs>
<clipPath id="clip0_3801_17363">
<rect width="48" height="48" fill="white"/>
</clipPath>
</defs>
</svg>
