<svg width="48" height="48" viewBox="0 0 48 48" fill="none" xmlns="http://www.w3.org/2000/svg">
<g clip-path="url(#clip0_3801_17423)">
<path d="M38.4 0H9.6C4.29807 0 0 4.29807 0 9.6V38.4C0 43.7019 4.29807 48 9.6 48H38.4C43.7019 48 48 43.7019 48 38.4V9.6C48 4.29807 43.7019 0 38.4 0Z" fill="url(#paint0_linear_3801_17423)"/>
<path d="M36.1992 28.0732C36.7608 25.8969 32.3285 23.4124 23.2853 21.0748C17.2661 19.5186 13.2283 18.0402 13.5461 15.4281C13.5711 15.2246 12.8981 15.4914 12.8981 15.4914C12.5435 16.2188 12.4571 17.0481 12.6542 17.8329C13.3464 20.1954 16.9819 21.4089 23.0856 22.9468C29.5339 24.6748 34.9445 26.4028 35.2776 28.4524C35.4552 29.518 36.0629 28.6002 36.1992 28.0732Z" fill="#DCDCDC"/>
<path d="M36.7956 27.1853C37.384 25.8105 37.0912 25.3689 36.6563 24.7411C36.0584 23.9545 35.3036 23.3007 34.4397 22.8211C32.3748 21.5203 29.0637 20.1773 23.9834 18.6739C19.6634 17.4605 13.6509 15.7939 16.1786 13.9805L14.8912 14.3145C13.4599 15.4589 14.3661 16.9382 16.9284 18.0201C19.1507 18.8887 21.4276 19.6106 23.7444 20.1811C26.9317 20.9812 30.0368 22.0788 33.0189 23.4595C34.2988 23.9757 35.4233 24.8144 36.2829 25.8941C36.5441 26.2675 36.6929 26.7079 36.712 27.1632" fill="#DCDCDC"/>
<path d="M33.5224 30.4336L34.8453 29.5101C35.0623 27.2445 29.2879 25.5184 23.6671 24.0976C20.7628 23.4807 17.9197 22.6046 15.172 21.4797C13.2904 20.6099 12.2229 19.6624 11.9388 18.5747C11.8273 18.1604 11.8039 17.7273 11.8701 17.3033C11.9362 16.8794 12.0904 16.474 12.3227 16.1133L11.4155 17.1741L11.0383 18.0534C10.82 18.7772 10.8104 19.5478 11.0104 20.2768C11.7583 22.6154 15.6693 24.256 24.0194 25.9408C26.4175 26.4284 28.7728 27.1067 31.0629 27.9693C32.5125 28.5261 34.7023 29.6397 33.5224 30.4336Z" fill="#DCDCDC"/>
<path d="M13.5232 31.3463C13.9904 31.4856 14.4672 31.5909 14.9497 31.6611C14.4227 31.064 18.7456 30.6292 20.3161 30.562V29.4397C16.5289 29.4205 13.0537 30.5024 13.5232 31.3463Z" fill="#DCDCDC"/>
<path d="M20.316 26.025C11.196 25.6314 11.3716 29.1277 11.3803 29.2343L11.6001 30.6119C11.7585 27.4295 17.0107 27.2384 20.316 27.1396V26.025Z" fill="#DCDCDC"/>
<path d="M12.002 30.5578C12.2279 30.7775 12.4871 30.9602 12.77 31.0992C12.9802 29.6247 16.9123 28.8615 20.3127 28.8049V27.7345C13.7674 27.7191 11.9309 29.5546 12.002 30.5578Z" fill="#DCDCDC"/>
<path d="M11.9657 32.8484L11.7305 31.4583C13.4863 35.9185 33.1817 36.3294 36.8825 28.7214C36.8998 28.6868 36.7154 30.0241 36.7154 30.0241C33.1586 39.0001 13.279 37.3498 11.9945 32.9866C11.982 32.9454 11.9724 32.8906 11.9638 32.8474" fill="white"/>
<path d="M12.1426 33.967C13.9723 38.6873 32.3602 39.317 36.3557 31.7321C36.4844 31.4699 36.5932 31.1984 36.6811 30.9199L36.4728 32.4559C33.2885 42.1519 13.7755 39.7961 12.4027 35.6355L12.1426 33.967Z" fill="white"/>
<path d="M11.3809 29.2406C11.9386 33.1766 36.4273 32.7129 37.1271 25.8633C37.1696 26.5858 37.0927 27.3104 36.8996 28.0079C32.5633 35.6438 12.7248 34.6166 11.6016 30.6326L11.3809 29.2406Z" fill="white"/>
<path d="M34.8119 13.5846C33.9018 13.384 29.0202 11.8566 29.0202 11.8566C19.9492 8.93631 16.9242 11.3843 16.9242 11.3843C16.5959 11.6723 15.0234 13 15.0234 13C17.7441 11.0282 22.8877 11.4784 28.7351 13.4118C30.9326 14.2061 33.2012 14.7877 35.5098 15.1485L34.8119 13.5846Z" fill="white"/>
<path d="M33.7949 11.2963C32.1351 10.6382 30.443 10.0646 28.7251 9.57791C20.5152 7.27391 17.7188 10.4985 17.7188 10.4985C20.8752 8.52863 26.521 10.1654 28.4573 10.6742C30.1556 11.1197 33.5453 12.2861 34.3594 12.5673L33.7949 11.2963Z" fill="white"/>
<path d="M35.8845 15.9755C35.5274 16.0148 33.9194 15.9515 27.28 14.0055C18.64 11.4721 15.4653 12.9975 13.8669 14.163C13.8669 14.163 10.8141 16.3134 10.8679 19.2356C10.8679 18.5636 10.9716 11.86 27.2465 16.8222C30.6449 17.858 35.8672 19.1895 36.5335 17.4279L35.8845 15.9755Z" fill="white"/>
</g>
<defs>
<linearGradient id="paint0_linear_3801_17423" x1="29.376" y1="24" x2="5.76" y2="48" gradientUnits="userSpaceOnUse">
<stop stop-color="#1883D8"/>
<stop offset="1" stop-color="#045BA2"/>
</linearGradient>
<clipPath id="clip0_3801_17423">
<rect width="48" height="48" fill="white"/>
</clipPath>
</defs>
</svg>
