<svg width="49" height="49" viewBox="0 0 49 49" fill="none" xmlns="http://www.w3.org/2000/svg">
<path d="M38.4137 0.0136719H9.61367C4.31174 0.0136719 0.0136719 4.31174 0.0136719 9.61367V38.4137C0.0136719 43.7156 4.31174 48.0137 9.61367 48.0137H38.4137C43.7156 48.0137 48.0137 43.7156 48.0137 38.4137V9.61367C48.0137 4.31174 43.7156 0.0136719 38.4137 0.0136719Z" fill="white"/>
<path d="M38.4136 0.349609H9.61361C4.49724 0.349609 0.349609 4.49724 0.349609 9.61361V38.4136C0.349609 43.53 4.49724 47.6776 9.61361 47.6776H38.4136C43.53 47.6776 47.6776 43.53 47.6776 38.4136V9.61361C47.6776 4.49724 43.53 0.349609 38.4136 0.349609Z" stroke="#E6E6E6" stroke-width="0.7"/>
<path fill-rule="evenodd" clip-rule="evenodd" d="M27.9671 6.55749C29.5743 5.71747 31.4479 5.54469 33.1816 6.0766C34.9153 6.60851 36.3696 7.80226 37.2292 9.39909C37.6477 10.1883 37.9054 11.0526 37.9873 11.9421C38.0693 12.8316 37.9738 13.7285 37.7066 14.5809C37.4393 15.4332 37.0055 16.224 36.4303 16.9075C35.8552 17.5909 35.1501 18.1534 34.3559 18.5623L31.6007 20.0109C32.8032 20.0507 33.9741 20.4061 34.9959 21.0413C36.0177 21.6766 36.8544 22.5694 37.4222 23.6301C37.8409 24.4192 38.0988 25.2836 38.1809 26.1732C38.263 27.0627 38.1676 27.9597 37.9003 28.8121C37.633 29.6646 37.1991 30.4554 36.6238 31.1388C36.0485 31.8222 35.3432 32.3846 34.5489 32.7933L19.8609 40.5117C18.2537 41.3518 16.3801 41.5245 14.6464 40.9926C12.9127 40.4607 11.4584 39.267 10.5988 37.6701C10.1801 36.881 9.92218 36.0167 9.84003 35.1272C9.75787 34.2377 9.85309 33.3407 10.1202 32.4883C10.3873 31.6358 10.8209 30.8449 11.396 30.1613C11.971 29.4777 12.676 28.9151 13.4702 28.506L16.2254 27.0573C15.0226 27.0176 13.8515 26.6622 12.8295 26.0268C11.8075 25.3913 10.9707 24.4983 10.403 23.4372C9.98478 22.6481 9.72734 21.7839 9.64555 20.8946C9.56377 20.0053 9.65927 19.1086 9.92652 18.2565C10.1938 17.4044 10.6275 16.6138 11.2025 15.9305C11.7775 15.2472 12.4823 14.6848 13.2762 14.2759L27.9642 6.55749H27.9671ZM20.0375 18.0679L28.929 23.5572L20.0375 29.0205V18.0679Z" fill="#F40407"/>
</svg>
