<svg width="137" height="48" viewBox="0 0 137 48" fill="none" xmlns="http://www.w3.org/2000/svg">
<path d="M0 9.6C0 4.29807 4.29807 0 9.6 0H38.4C43.7019 0 48 4.29807 48 9.6V38.4C48 43.7019 43.7019 48 38.4 48H9.6C4.29807 48 0 43.7019 0 38.4V9.6Z" fill="#FF0000"/>
<path d="M40.5679 15.306C40.1654 13.8218 39.0058 12.6626 37.5215 12.2604C34.8172 11.52 23.9999 11.52 23.9999 11.52C23.9999 11.52 13.1818 11.52 10.4775 12.2319C8.99568 12.6554 7.84154 13.8203 7.43193 15.306C6.72 18.0103 6.72 23.6159 6.72 23.6159C6.72 23.6159 6.72 29.2527 7.43193 31.9285C7.8334 33.4137 8.99276 34.5743 10.4775 34.9775C13.2103 35.7179 23.9999 35.7179 23.9999 35.7179C23.9999 35.7179 34.8172 35.7179 37.5223 35.006C39.0066 34.6039 40.1663 33.4446 40.5688 31.9604C41.2799 29.2553 41.2799 23.6471 41.2799 23.6471C41.2799 23.6471 41.3084 18.0103 40.5679 15.306Z" fill="white"/>
<path d="M20.5541 28.7999L29.55 23.6159L20.5541 18.432V28.7999Z" fill="#FF0000"/>
</svg>
